<svg width="182" height="48" viewBox="0 0 182 48" fill="none" xmlns="http://www.w3.org/2000/svg">
<rect x="18.665" y="11.6406" width="13.7455" height="24.7025" fill="#FF5F00"/>
<path d="M19.5379 23.9962C19.5341 19.1766 21.7466 14.6229 25.5379 11.6471C19.0971 6.58533 9.84785 7.32263 4.29026 13.3409C-1.26733 19.3591 -1.26733 28.6377 4.29026 34.6559C9.84785 40.6742 19.0971 41.4115 25.5379 36.3497C21.7454 33.373 19.5328 28.8174 19.5379 23.9962Z" fill="#EB001B"/>
<path d="M50.9563 24.0023C50.9561 30.0168 47.5218 35.5034 42.1119 38.1317C36.7021 40.76 30.2663 40.0687 25.5381 36.3514C29.3277 33.3731 31.5404 28.82 31.5404 24.0001C31.5404 19.1802 29.3277 14.6271 25.5381 11.6488C30.267 7.931 36.7037 7.24004 42.1139 9.86946C47.5241 12.4989 50.9578 17.9869 50.9563 24.0023Z" fill="#F79E1B"/>
<path fill-rule="evenodd" clip-rule="evenodd" d="M50.454 33.1211V34.114L50.3406 34.1211V33.3693L50.1704 34.0147H50.0526L49.8824 33.3693V34.114H49.7908V33.1211H49.9522L50.1355 33.8303L50.3188 33.1211H50.454ZM49.4461 33.2913V34.114L49.3457 34.1211V33.2984H49.1406V33.1282H49.6512V33.2913H49.4461Z" fill="#F79E1B"/>
<path fill-rule="evenodd" clip-rule="evenodd" d="M175.992 24.0617V14.6406H173.718V20.1039C172.932 19.089 171.702 18.5181 170.419 18.5723C167.491 18.5723 165.183 20.8675 165.183 24.0574C165.183 27.2472 167.478 29.5424 170.419 29.5424C171.702 29.5966 172.932 29.0257 173.718 28.0108V29.2763H175.992V24.0617ZM108.229 18.8399H111.942L111.938 20.917H108.224V25.6384C108.224 26.6857 108.6 27.3839 109.734 27.3839C110.444 27.3608 111.136 27.1581 111.746 26.7948L112.4 28.741C111.548 29.2717 110.564 29.5515 109.56 29.5482C106.872 29.5482 105.933 28.1039 105.933 25.6777V20.917H103.813V18.8399H105.933V15.6719H108.229V18.8399ZM77.9799 22.7408V29.2862H75.6803V23.4739C75.6803 21.7022 74.8948 20.7204 73.385 20.7204C71.8752 20.7204 70.8279 21.6804 70.8279 23.4957V29.2862H68.5457V23.4739C68.5457 21.7022 67.8257 20.7204 66.2723 20.7204C64.7188 20.7204 63.7152 21.6804 63.7152 23.4957V29.2862H61.4199V18.8309H63.6934V20.14C64.3651 19.1183 65.5266 18.5276 66.7479 18.5866C68.1521 18.527 69.4765 19.2403 70.1996 20.4455C70.9929 19.2037 72.3988 18.4915 73.8694 18.5866C76.4046 18.6084 77.9799 20.2709 77.9799 22.7408ZM131.33 18.5755C130.201 18.5426 129.144 19.1304 128.576 20.1072V18.8374H126.325V29.2839H128.598V23.4279C128.598 21.6824 129.34 20.7399 130.828 20.7399C131.315 20.7329 131.798 20.8218 132.25 21.0017L132.949 18.8592C132.429 18.6733 131.882 18.5774 131.33 18.5755ZM97.7559 18.5751C99.2522 18.5226 100.732 18.9013 102.019 19.666L101.042 21.5075C100.05 20.9377 98.9299 20.6298 97.7864 20.6129C96.5385 20.6129 95.7966 21.0711 95.7966 21.8347C95.7966 22.5329 96.5865 22.7293 97.5683 22.8602L98.6374 23.0129C100.906 23.3402 102.285 24.3002 102.285 26.1373C102.285 28.1227 100.536 29.5453 97.5203 29.5453C95.9054 29.5896 94.3191 29.1139 92.9952 28.1882L94.0294 26.4209C95.037 27.1673 96.267 27.5517 97.5203 27.5118C99.0737 27.5118 99.9028 27.0493 99.9028 26.242C99.9028 25.6529 99.3094 25.3257 98.0657 25.1511L96.9966 24.9984C94.6577 24.6711 93.3923 23.6238 93.3923 21.9177C93.3923 19.8449 95.1115 18.5751 97.7559 18.5751ZM162.901 18.5755C161.771 18.5426 160.715 19.1304 160.147 20.1072V18.8374H157.896V29.2839H160.169V23.4279C160.169 21.6824 160.911 20.7399 162.399 20.7399C162.886 20.7329 163.369 20.8218 163.821 21.0017L164.52 18.8592C164 18.6733 163.452 18.5774 162.901 18.5755ZM139.197 29.5481C135.833 29.5481 133.625 27.231 133.625 24.063V24.0543C133.625 20.8863 135.833 18.5692 139.197 18.5692C140.562 18.5017 141.902 18.9469 142.955 19.8172L141.864 21.6543C141.078 21.0558 140.12 20.7268 139.132 20.7161C137.321 20.7379 135.986 22.0514 135.986 24.0586C135.986 26.0659 137.317 27.4012 139.132 27.4012C140.12 27.3905 141.078 27.0615 141.864 26.463L142.955 28.3001C141.902 29.1704 140.562 29.6156 139.197 29.5481ZM154.911 24.0603V18.8239H152.637V20.0938C151.851 19.0788 150.621 18.508 149.338 18.5621C146.41 18.5621 144.102 20.8574 144.102 24.0472C144.102 27.237 146.397 29.5323 149.338 29.5323C150.621 29.5864 151.851 29.0156 152.637 28.0007V29.2661H154.911V24.0603ZM149.622 20.7191C147.654 20.7191 146.454 22.2246 146.454 24.0617C146.454 25.8944 147.654 27.4042 149.622 27.4042C151.503 27.4042 152.768 25.9599 152.768 24.0617C152.768 22.1635 151.503 20.7191 149.622 20.7191ZM119.024 18.5747C115.97 18.5747 113.823 20.8045 113.823 24.0598C113.823 27.3805 116.053 29.5449 119.177 29.5449C120.737 29.5995 122.263 29.0776 123.462 28.0787L122.349 26.3943C121.481 27.0887 120.406 27.4727 119.295 27.4852C117.829 27.4852 116.498 26.8089 116.17 24.9281H123.929C123.951 24.6445 123.973 24.3609 123.973 24.0554C123.973 20.8001 121.939 18.5703 119.011 18.5703L119.024 18.5747ZM121.625 23.1453C121.385 21.5272 120.448 20.611 118.983 20.6101C117.365 20.611 116.45 21.6362 116.21 23.1453H121.625ZM178.911 28.373C178.83 28.3388 178.742 28.321 178.654 28.3206H178.658C178.562 28.3184 178.467 28.3362 178.378 28.373C178.217 28.4393 178.089 28.5662 178.021 28.7264C177.95 28.8909 177.95 29.0769 178.021 29.2414C178.129 29.4907 178.377 29.6506 178.649 29.6472C178.739 29.6479 178.828 29.6301 178.911 29.5948C178.99 29.5605 179.063 29.5117 179.125 29.4508C179.185 29.3908 179.234 29.3197 179.269 29.2414C179.339 29.077 179.339 28.8908 179.269 28.7264C179.234 28.648 179.186 28.5769 179.125 28.517C179.063 28.4559 178.991 28.407 178.911 28.373ZM178.657 29.4989C178.723 29.4989 178.789 29.4855 178.85 29.4595C178.91 29.4335 178.965 29.3965 179.011 29.3504C179.213 29.1478 179.213 28.82 179.011 28.6173C178.965 28.571 178.91 28.534 178.85 28.5083C178.786 28.4815 178.718 28.4682 178.649 28.469C178.579 28.468 178.509 28.4814 178.444 28.5083C178.286 28.5757 178.172 28.7169 178.138 28.8855C178.105 29.0541 178.158 29.2281 178.278 29.3504C178.326 29.3971 178.382 29.4342 178.444 29.4595C178.511 29.4875 178.584 29.501 178.657 29.4989ZM178.657 29.4989L178.649 29.4988H178.658L178.657 29.4989ZM178.872 28.721C178.818 28.6826 178.754 28.6641 178.688 28.6687L178.405 28.673V29.2839H178.536V29.0527H178.597L178.784 29.2839H178.941L178.741 29.0527C178.794 29.0486 178.845 29.0272 178.885 28.9916C178.919 28.9589 178.939 28.9128 178.937 28.865C178.939 28.8093 178.915 28.7558 178.872 28.721ZM178.536 28.7847V28.9505H178.688C178.715 28.9584 178.744 28.9584 178.771 28.9505C178.791 28.9368 178.803 28.9137 178.802 28.8894C178.803 28.8651 178.791 28.842 178.771 28.8283C178.744 28.8204 178.715 28.8204 178.688 28.8283L178.536 28.7847ZM170.712 20.7191C168.744 20.7191 167.544 22.2246 167.544 24.0617C167.544 25.8944 168.744 27.4042 170.712 27.4042C172.592 27.4042 173.858 25.9599 173.858 24.0617C173.858 22.1635 172.592 20.7191 170.712 20.7191ZM90.7872 24.0627V18.8264H88.5138V20.0962C87.7272 19.09 86.5039 18.5247 85.2279 18.5776C82.2999 18.5776 79.9916 20.8729 79.9916 24.0627C79.9916 27.2525 82.2868 29.5478 85.2279 29.5478C86.5108 29.602 87.7403 29.0311 88.5268 28.0162V29.2816H90.8003L90.7872 24.0627ZM85.4985 20.7191C83.5305 20.7191 82.3305 22.2246 82.3305 24.0617C82.3305 25.8988 83.5305 27.4042 85.4985 27.4042C87.3792 27.4042 88.6447 25.9599 88.6447 24.0617C88.6447 22.1635 87.3792 20.7191 85.4985 20.7191Z" fill="white"/>
</svg>
