<svg width="16" height="16" viewBox="0 0 16 16" fill="none" xmlns="http://www.w3.org/2000/svg">
<path d="M8 0.985981C8 0.441439 7.5569 -0.00626513 7.01649 0.0606803C5.78267 0.213523 4.59667 0.652516 3.55544 1.34824C2.23984 2.22729 1.21446 3.47672 0.608964 4.93853C0.00346269 6.40034 -0.154964 8.00887 0.153718 9.56072C0.4624 11.1126 1.22433 12.538 2.34315 13.6569C3.46197 14.7757 4.88743 15.5376 6.43928 15.8463C7.99113 16.155 9.59966 15.9965 11.0615 15.391C12.5233 14.7855 13.7727 13.7602 14.6518 12.4446C15.3475 11.4033 15.7865 10.2173 15.9393 8.98351C16.0063 8.4431 15.5586 8 15.014 8V8C14.4695 8 14.0363 8.44433 13.9476 8.98161C13.8084 9.82464 13.491 10.6323 13.0121 11.349C12.3498 12.3403 11.4083 13.1129 10.3068 13.5692C9.20535 14.0254 7.99331 14.1448 6.82399 13.9122C5.65466 13.6796 4.58057 13.1055 3.73753 12.2625C2.8945 11.4194 2.32038 10.3453 2.08779 9.17601C1.8552 8.00669 1.97457 6.79465 2.43082 5.69317C2.88707 4.59169 3.6597 3.65024 4.651 2.98787C5.36767 2.50901 6.17536 2.19156 7.01839 2.05242C7.55567 1.96374 8 1.53052 8 0.985981V0.985981Z" fill="white"/>
</svg>
