<svg width="18" height="18" viewBox="0 0 18 18" fill="none" xmlns="http://www.w3.org/2000/svg">
<path fill-rule="evenodd" clip-rule="evenodd" d="M12.3942 0.80795C10.221 -0.0922333 7.77919 -0.0922333 5.60599 0.80795C3.43276 1.70813 1.70617 3.43472 0.805992 5.60795C-0.0941849 7.78115 -0.0941849 10.2229 0.805992 12.3962C1.70617 14.5694 3.43276 16.296 5.60599 17.1962C7.77919 18.0963 10.221 18.0963 12.3942 17.1962C14.5674 16.296 16.294 14.5694 17.1942 12.3962C18.0944 10.2229 18.0944 7.78115 17.1942 5.60795C16.294 3.43472 14.5674 1.70813 12.3942 0.80795ZM12.389 6.0548C12.691 5.66003 12.6159 5.09516 12.2211 4.79312C11.8263 4.49108 11.2615 4.56626 10.9594 4.96103L9.43921 6.94802C9.29767 6.91793 9.15088 6.90209 9.0004 6.90209C7.8406 6.90209 6.9004 7.84229 6.9004 9.00209C6.9004 10.1619 7.8406 11.1021 9.0004 11.1021C9.44878 11.1021 9.86437 10.9616 10.2055 10.7221L14.1181 12.948C14.5502 13.1937 15.0997 13.0428 15.3454 12.6107C15.5912 12.1787 15.4402 11.6292 15.0082 11.3834L11.0948 9.15713C11.0985 9.10595 11.1004 9.05423 11.1004 9.00209C11.1004 8.65616 11.0167 8.32976 10.8686 8.04203L12.389 6.0548Z" fill="#A0ABB5"/>
</svg>
