<svg width="568" height="287" viewBox="0 0 568 287" fill="none" xmlns="http://www.w3.org/2000/svg">
<path opacity="0.080334" fill-rule="evenodd" clip-rule="evenodd" d="M416.29 198.491L434.675 213.791L450.102 195.558L431.717 180.258L416.29 198.491ZM372.651 250.206L394.773 224.059L372.487 205.514L387.646 187.597L450.462 239.87L435.303 257.787L413.011 239.236L390.888 265.383L372.651 250.206Z" fill="#A0AFC3"/>
<path opacity="0.160334" fill-rule="evenodd" clip-rule="evenodd" d="M373.048 90.7481L383.622 93.7551L386.654 83.2686L376.08 80.2616L373.048 90.7481ZM364.862 120.591L369.114 105.883L356.496 102.295L359.41 92.2168L394.976 102.331L392.062 112.409L379.44 108.82L375.188 123.528L364.862 120.591Z" fill="#A0AFC3"/>
<path opacity="0.240334" fill-rule="evenodd" clip-rule="evenodd" d="M112.881 65.3281L153.254 53.847L141.677 13.8076L101.304 25.2887L112.881 65.3281ZM145.559 179.788L128.876 122.087L79.7657 136.053L68.3339 96.5151L206.756 57.1514L218.187 96.6893L169.064 110.659L185.747 168.359L145.559 179.788Z" fill="#A0AFC3"/>
<path fill-rule="evenodd" clip-rule="evenodd" d="M295.466 216.117L265.102 222.99L279.558 194.785L399.342 183.659L295.466 216.117Z" fill="#BF3E00"/>
<path fill-rule="evenodd" clip-rule="evenodd" d="M265.102 222.993L316.685 219.814L304.042 213.44L265.102 222.993Z" fill="#802500"/>
<path fill-rule="evenodd" clip-rule="evenodd" d="M399.34 183.658L279.559 194.788L270.534 167.315L399.34 183.658Z" fill="#FF7D40"/>
<path fill-rule="evenodd" clip-rule="evenodd" d="M310.95 255.723L295.467 216.121L399.34 183.659L310.95 255.723Z" fill="#FF7D40"/>
<path fill-rule="evenodd" clip-rule="evenodd" d="M295.466 216.117L265.102 222.99L279.558 194.785L399.342 183.659L295.466 216.117Z" fill="#BF3E00"/>
<path fill-rule="evenodd" clip-rule="evenodd" d="M265.102 222.993L316.685 219.814L304.042 213.44L265.102 222.993Z" fill="#802500"/>
<path fill-rule="evenodd" clip-rule="evenodd" d="M399.34 183.658L279.559 194.788L270.534 167.315L399.34 183.658Z" fill="#FF7D40"/>
<path fill-rule="evenodd" clip-rule="evenodd" d="M310.95 255.723L295.467 216.121L399.34 183.659L310.95 255.723Z" fill="#FF7D40"/>
<path fill-rule="evenodd" clip-rule="evenodd" d="M228.657 143.371C229.198 150.705 226.974 158.729 222.703 164.83C222.26 165.463 222.164 166.226 222.374 166.906C222.527 167.404 222.844 167.863 223.308 168.179C224.41 168.935 225.924 168.665 226.685 167.58C231.644 160.489 234.129 151.543 233.497 143.019C233.389 141.698 232.234 140.697 230.899 140.795C229.561 140.893 228.558 142.048 228.657 143.371ZM204.703 117.874C203.365 117.964 202.359 119.118 202.454 120.441C202.465 120.627 202.501 120.809 202.556 120.978C202.876 122.029 203.895 122.755 205.041 122.675C211.013 122.258 216.191 123.698 220.446 126.955C221.938 128.103 223.263 129.461 224.373 130.99C225.16 132.066 226.675 132.315 227.761 131.534C228.845 130.757 229.098 129.247 228.31 128.175C226.923 126.274 225.275 124.58 223.411 123.147C218.264 119.199 211.796 117.381 204.703 117.874ZM241.214 250.277C239.893 250.482 238.985 251.713 239.195 253.024C239.214 253.143 239.239 253.252 239.272 253.361C239.62 254.489 240.759 255.219 241.968 255.031C245.763 254.441 249.533 253.582 253.178 252.477C257.597 251.141 261.889 249.43 265.93 247.385C267.128 246.787 267.615 245.342 266.992 244.155C266.386 242.966 264.927 242.495 263.735 243.102C259.94 245.011 255.911 246.623 251.761 247.875C248.333 248.913 244.786 249.719 241.214 250.277ZM213.005 174.746C207.685 178.861 201.068 182.502 192.192 186.203C191.035 186.684 190.455 187.953 190.811 189.122C190.817 189.137 190.822 189.154 190.828 189.17C190.849 189.231 190.87 189.294 190.895 189.352C191.418 190.578 192.838 191.154 194.074 190.639C203.354 186.769 210.322 182.926 215.991 178.544C217.047 177.726 217.231 176.212 216.415 175.162C215.59 174.115 214.064 173.928 213.005 174.746ZM174.454 133.152C172.974 134.723 171.547 136.403 170.213 138.151C169.729 138.789 169.611 139.592 169.83 140.305C169.973 140.773 170.259 141.203 170.686 141.517C171.751 142.323 173.275 142.114 174.084 141.053C175.313 139.442 176.633 137.883 177.999 136.436C181.882 132.309 186.668 128.82 191.844 126.349C193.051 125.773 193.557 124.332 192.976 123.135C192.395 121.939 190.945 121.438 189.739 122.014C184.026 124.738 178.736 128.595 174.454 133.152ZM203.767 246.911C202.51 246.46 201.114 247.103 200.658 248.353C200.475 248.865 200.469 249.395 200.618 249.872C200.832 250.573 201.366 251.17 202.112 251.436C209.919 254.243 218.25 255.78 226.871 256.005C228.21 256.04 229.327 254.993 229.362 253.664C229.401 252.333 228.336 251.232 226.997 251.197C218.902 250.984 211.085 249.545 203.767 246.911ZM162.47 151.137C159.065 158.643 156.949 166.787 156.177 175.341C156.148 175.659 156.182 175.969 156.271 176.26C156.55 177.164 157.36 177.865 158.375 177.954C159.708 178.071 160.888 177.095 161.007 175.77C161.736 167.752 163.712 160.127 166.896 153.114C167.449 151.908 166.905 150.479 165.681 149.933C164.457 149.387 163.02 149.927 162.47 151.137ZM173.997 224.809C173.214 223.729 171.698 223.484 170.614 224.261C169.746 224.881 169.414 225.957 169.707 226.915C169.783 227.164 169.898 227.4 170.061 227.62C173.162 231.882 176.717 235.744 180.631 239.085C183.073 241.166 185.706 243.096 188.457 244.82C189.588 245.529 191.089 245.196 191.804 244.075C192.528 242.951 192.18 241.464 191.053 240.755C188.498 239.154 186.056 237.365 183.797 235.436C180.17 232.341 176.875 228.764 173.997 224.809ZM155.488 199.038C154.201 199.409 153.461 200.741 153.834 202.017C153.836 202.029 153.838 202.042 153.844 202.051C154.229 203.309 155.564 204.025 156.837 203.661C157.029 203.605 157.22 203.55 157.411 203.494C157.791 203.385 158.17 203.276 158.549 203.161C159.588 207.058 160.931 210.88 162.543 214.526C163.084 215.743 164.516 216.297 165.743 215.761C166.966 215.228 167.543 213.815 166.987 212.591C165.449 209.122 164.173 205.471 163.191 201.752C168.573 200.068 174.182 198.161 180.255 195.947C181.516 195.492 182.155 194.094 181.697 192.863C181.239 191.613 179.842 190.973 178.588 191.433C172.723 193.563 167.303 195.412 162.11 197.044C161.648 194.682 161.299 192.292 161.066 189.891C160.923 188.543 159.746 187.594 158.417 187.726C157.081 187.856 156.107 189.031 156.234 190.352C156.499 193.079 156.908 195.787 157.451 198.463C156.796 198.66 156.142 198.849 155.488 199.038ZM117.526 206.428C116.189 206.538 115.2 207.703 115.316 209.026C115.329 209.2 115.363 209.369 115.412 209.526C115.739 210.59 116.774 211.314 117.939 211.218C125.696 210.569 133.947 209.271 142.465 207.357C143.773 207.067 144.59 205.779 144.293 204.481C144.031 203.237 142.703 202.369 141.393 202.668C133.09 204.527 125.063 205.792 117.526 206.428ZM79.3746 203.866C78.0784 203.544 76.7588 204.328 76.429 205.616C76.3224 206.057 76.3411 206.496 76.4664 206.901C76.7062 207.682 77.3373 208.324 78.1936 208.538L79.3415 208.81C86.8653 210.537 94.8215 211.509 102.99 211.695C104.334 211.727 105.448 210.671 105.474 209.345C105.517 208.014 104.444 206.916 103.108 206.886C95.2641 206.709 87.6356 205.774 80.4404 204.125L79.3746 203.866ZM45.6541 186.872C44.6205 186.024 43.093 186.165 42.2381 187.19C41.7004 187.835 41.5581 188.681 41.7884 189.424C41.9199 189.863 42.1783 190.267 42.5628 190.574C49.0378 195.889 56.2219 200.297 63.9082 203.671C65.1377 204.21 66.5732 203.658 67.1156 202.442C67.6534 201.23 67.1007 199.807 65.8751 199.269C58.5922 196.074 51.7887 191.904 45.6541 186.872ZM23.3719 156.91C22.9004 155.665 21.5021 155.033 20.2475 155.497C19.0438 155.946 18.4054 157.248 18.7795 158.452C18.7946 158.503 18.8059 158.553 18.8264 158.596C21.6889 166.172 26.0484 173.394 31.7742 180.068C32.6458 181.079 34.1747 181.203 35.1984 180.339C36.222 179.476 36.327 177.956 35.475 176.948C30.1091 170.696 26.0386 163.956 23.3719 156.91ZM17.8858 145.753C16.7127 145.872 15.6468 145.138 15.3146 144.061C15.2683 143.913 15.2384 143.764 15.2223 143.606C14.7844 139.43 14.8178 135.21 15.3254 131.064C15.484 129.741 16.6903 128.802 18.0193 128.962C19.3497 129.115 20.2996 130.32 20.1378 131.638C19.6812 135.429 19.6519 139.287 20.0521 143.108C20.1876 144.43 19.2203 145.611 17.8858 145.753Z" fill="#A0ABB5"/>
<path fill-rule="evenodd" clip-rule="evenodd" d="M532.9 247.935L549.704 252.512L462.33 268.55L509.697 249.668L532.9 247.935Z" fill="#95E0E9"/>
<path fill-rule="evenodd" clip-rule="evenodd" d="M548.021 257.492L462.329 268.556L549.704 252.519L548.021 257.492Z" fill="#336F77"/>
<path fill-rule="evenodd" clip-rule="evenodd" d="M548.512 272.071L543.444 284.435L462.539 268.58L548.641 271.909L548.512 272.071Z" fill="#55A0AA"/>
<path fill-rule="evenodd" clip-rule="evenodd" d="M565.43 266.348L539.7 275.542L462.885 268.477L554.76 255.365L565.43 266.348Z" fill="#95E0E9"/>
</svg>
