<svg width="32" height="32" viewBox="0 0 32 32" fill="none" xmlns="http://www.w3.org/2000/svg">
<path fill-rule="evenodd" clip-rule="evenodd" d="M15.9993 2.66602C23.3631 2.66602 29.3327 8.63555 29.3327 15.9993C29.3327 23.3631 23.3631 29.3327 15.9993 29.3327C8.63555 29.3327 2.66602 23.3631 2.66602 15.9993C2.66602 8.63555 8.63555 2.66602 15.9993 2.66602ZM15.9993 5.33268C10.1083 5.33268 5.33268 10.1083 5.33268 15.9993C5.33268 21.8904 10.1083 26.666 15.9993 26.666C21.8904 26.666 26.666 21.8904 26.666 15.9993C26.666 10.1083 21.8904 5.33268 15.9993 5.33268ZM17.3327 9.33268V17.3327H14.666V9.33268H17.3327ZM17.3327 19.9993V22.666H14.666V19.9993H17.3327Z" fill="#72D0DC"/>
</svg>
